# xmcd
#
# Track frame offsets:
#        150
#        12782
#        25810
#        41205
#        54075
#        67242
#        87700
#        105305
#        117587
#        136150
#        148372
#        163732
#        181275
#        197197
#        212655
#        228212
#        236862
#
# Disc length: 3339 seconds
#
# Revision: 0
# Processed by: cddbd v1.5.2PL0 Copyright (c) Steve Scherf et al.
# Submitted via: CDGFix 3.8d
#
DISCID=f80d0911
DTITLE=Various Artist - THMX04
DYEAR=1900
DGENRE=Karaoke
TTITLE0=Barbara Mandrell - Christmas At Our House
TTITLE1=Randy Travis - Meet Me Under The Mistletoe
TTITLE2=The Judds - Beautiful Star Of Bethlehem
TTITLE3=Dwight Yoakam - Santa Claus Is Back In Town
TTITLE4=Christmas - May The Good Lord Bless And Keep You
TTITLE5=George Strait - There's A New Kid In Town
TTITLE6=Trisha Yearwood - It Wasn't His Child
TTITLE7=Garth Brooks - Old Man's Back In Town
TTITLE8=Reba Mcentire - On This Day
TTITLE9=Randy Travis - Oh What A Silent Night
TTITLE10=Christmas/Female - Blue Christmas
TTITLE11=Christmas - Friendly Beasts (Christmas)
TTITLE12=Wynonna - Let's Make A Baby King
TTITLE13=Randy Travis - White Christmas Makes Me Blue
TTITLE14=Trisha Yearwood - Take A Walk Through Bethlehem
TTITLE15=Christmas - Twas The Night Before Christmas
TTITLE16=Christmas - Home For The Holidays
EXTD=
EXTT0=
EXTT1=
EXTT2=
EXTT3=
EXTT4=
EXTT5=
EXTT6=
EXTT7=
EXTT8=
EXTT9=
EXTT10=
EXTT11=
EXTT12=
EXTT13=
EXTT14=
EXTT15=
EXTT16=
PLAYORDER=
